HIERARCHY
ROOT Hips
{
	OFFSET -0.001795 -0.223333 0.028219
	CHANNELS 6 Xposition Yposition Zposition Zrotation Yrotation Xrotation 
	JOINT LeftUpLeg
	{
		OFFSET 0.069520 -0.091406 -0.006815
		CHANNELS 3 Zrotation Yrotation Xrotation
		JOINT LeftLeg
		{
			OFFSET 0.034277 -0.375199 -0.004496
			CHANNELS 3 Zrotation Yrotation Xrotation
			JOINT LeftFoot
			{
				OFFSET -0.013596 -0.397961 -0.043693
				CHANNELS 3 Zrotation Yrotation Xrotation
				JOINT LeftToe
				{
					OFFSET 0.026358 -0.055791 0.119288
					CHANNELS 3 Zrotation Yrotation Xrotation
					End Site
					{
						OFFSET 0.000000 0.000000 0.000000
					}
				}
			}
		}
	}
	JOINT RightUpLeg
	{
		OFFSET -0.067670 -0.090522 -0.004320
		CHANNELS 3 Zrotation Yrotation Xrotation
		JOINT RightLeg
		{
			OFFSET -0.038290 -0.382569 -0.008850
			CHANNELS 3 Zrotation Yrotation Xrotation
			JOINT RightFoot
			{
				OFFSET 0.015774 -0.398415 -0.042312
				CHANNELS 3 Zrotation Yrotation Xrotation
				JOINT RightToe
				{
					OFFSET -0.025372 -0.048144 0.123348
					CHANNELS 3 Zrotation Yrotation Xrotation
					End Site
					{
						OFFSET 0.000000 0.000000 0.000000
					}
				}
			}
		}
	}
	JOINT Spine
	{
		OFFSET -0.002533 0.108963 -0.026696
		CHANNELS 3 Zrotation Yrotation Xrotation
		JOINT Spine1
		{
			OFFSET 0.005487 0.135180 0.001092
			CHANNELS 3 Zrotation Yrotation Xrotation
			JOINT Spine2
			{
				OFFSET 0.001457 0.052922 0.025425
				CHANNELS 3 Zrotation Yrotation Xrotation
				JOINT Neck
				{
					OFFSET -0.002778 0.213870 -0.042857
					CHANNELS 3 Zrotation Yrotation Xrotation
					JOINT Head
					{
						OFFSET 0.005152 0.064970 0.051349
						CHANNELS 3 Zrotation Yrotation Xrotation
						End Site
						{
							OFFSET 0.000000 0.000000 0.000000
						}
					}
				}
				JOINT LeftShoulder
				{
					OFFSET 0.078845 0.121749 -0.034090
					CHANNELS 3 Zrotation Yrotation Xrotation
					JOINT LeftArm
					{
						OFFSET 0.090977 0.030469 -0.008868
						CHANNELS 3 Zrotation Yrotation Xrotation
						JOINT LeftForeArm
						{
							OFFSET 0.259612 -0.012772 -0.027456
							CHANNELS 3 Zrotation Yrotation Xrotation
							JOINT LeftHand
							{
								OFFSET 0.249234 0.008986 -0.001171
								CHANNELS 3 Zrotation Yrotation Xrotation
								End Site
								{
									OFFSET 0.000000 0.000000 0.000000
								}
							}
						}
					}
				}
				JOINT RightShoulder
				{
					OFFSET -0.081759 0.118833 -0.038615
					CHANNELS 3 Zrotation Yrotation Xrotation
					JOINT RightArm
					{
						OFFSET -0.096012 0.032551 -0.009143
						CHANNELS 3 Zrotation Yrotation Xrotation
						JOINT RightForeArm
						{
							OFFSET -0.253742 -0.013329 -0.021401
							CHANNELS 3 Zrotation Yrotation Xrotation
							JOINT RightHand
							{
								OFFSET -0.255298 0.007772 -0.005559
								CHANNELS 3 Zrotation Yrotation Xrotation
								End Site
								{
									OFFSET 0.000000 0.000000 0.000000
								}
							}
						}
					}
				}
			}
		}
	}
}
MOTION
Frames: 7
Frame Time: 0.050000
0.000000 0.948211 0.000000 -3.701490 2.779877 -10.370705 -3.630752 0.124969 1.411682 0.158442 -0.238919 5.675113 0.191406 3.176854 6.077965 0.000000 0.000000 0.000000 0.643016 2.575472 -25.335887 3.086534 -0.773235 67.017340 0.298676 -1.985947 5.916522 0.000000 0.000000 0.000000 6.278884 -1.076805 12.424876 -0.259717 0.232573 -2.569064 -3.972470 2.119955 12.640388 10.351049 -6.326946 -10.777248 0.000000 0.000000 0.000000 -19.414289 -11.485256 3.236536 -51.757623 -5.231729 -4.500092 -8.576518 -29.577895 3.205079 0.000000 0.000000 0.000000 17.863228 1.942618 0.687936 58.065566 9.188865 -2.253229 4.082559 32.467180 2.819224 0.000000 0.000000 0.000000 
0.001678 0.948081 0.007411 -5.210134 2.090894 -10.065307 -2.309892 0.302948 3.068024 0.185915 -0.175447 4.057677 0.847011 3.581034 4.106078 0.000000 0.000000 0.000000 1.810827 3.348867 -29.686667 1.968993 0.328722 60.885112 1.060098 -1.658264 9.113215 0.000000 0.000000 0.000000 8.093018 -1.085206 11.156312 0.399322 -0.137279 -1.221340 -5.177761 2.384172 13.139952 10.922492 -6.534384 -11.557200 0.000000 0.000000 0.000000 -18.115244 -12.410556 3.710050 -52.472296 -6.102973 -4.220561 -8.438655 -29.414274 3.141084 0.000000 0.000000 0.000000 16.178185 1.639274 0.604610 61.582015 9.189236 -2.178741 2.054613 33.272621 2.423104 0.000000 0.000000 0.000000 
0.002911 0.948774 0.014703 -4.504432 0.646255 -10.594096 -3.432082 0.416197 3.918628 1.007415 -0.351676 5.319126 1.321535 4.355974 3.927041 0.000000 0.000000 0.000000 1.818187 3.437326 -29.404851 -0.189656 1.975409 49.038941 2.564123 2.496822 6.803560 0.000000 0.000000 0.000000 7.524854 -1.141725 12.457728 -0.027106 0.070994 -1.590159 -4.650394 3.921345 13.154204 9.791642 -5.858220 -10.665205 0.000000 0.000000 0.000000 -18.462702 -14.024004 4.369051 -52.185231 -6.636840 -3.931999 -7.992558 -28.163621 2.856507 0.000000 0.000000 0.000000 15.631991 1.580043 0.691316 61.486988 8.435331 -2.569288 3.721604 34.438820 3.076561 0.000000 0.000000 0.000000 
0.003694 0.950090 0.021239 -4.923111 0.616075 -10.478705 -3.348310 0.571024 5.241373 1.302128 -0.379435 4.924372 1.829587 4.779143 2.386718 0.000000 0.000000 0.000000 2.352650 3.459801 -28.428276 -1.375733 1.985372 36.400044 3.122201 3.734141 6.776322 0.000000 0.000000 0.000000 7.259409 -1.128102 12.481068 0.417661 -0.163428 -1.053188 -4.563645 3.788031 13.254679 10.056396 -5.859999 -11.597748 0.000000 0.000000 0.000000 -17.997539 -14.372897 4.601461 -52.404733 -7.373210 -3.660631 -7.088236 -29.137649 2.738249 0.000000 0.000000 0.000000 15.383886 2.456797 1.100193 61.397543 8.806801 -2.358046 2.655485 35.321674 2.829323 0.000000 0.000000 0.000000 
0.004188 0.950704 0.027563 -4.708726 0.152844 -10.478197 -3.524097 0.576945 5.220038 1.330042 -0.420339 5.698180 1.883095 4.922410 2.514397 0.000000 0.000000 0.000000 2.654885 3.253468 -25.948126 -2.229027 1.654976 23.711874 3.723301 4.264884 8.137897 0.000000 0.000000 0.000000 6.833529 -1.109316 12.715530 0.260026 -0.095880 -0.885250 -4.237930 4.275333 13.407383 10.686350 -6.339025 -11.473804 0.000000 0.000000 0.000000 -17.598386 -15.574789 5.184154 -52.440725 -8.052140 -3.383225 -6.029182 -28.265750 2.386933 0.000000 0.000000 0.000000 15.294702 2.614687 1.205050 61.530815 9.254493 -2.112169 2.408249 36.132151 2.849754 0.000000 0.000000 0.000000 
0.004690 0.952197 0.034012 -4.884408 -0.018270 -10.772668 -3.482768 0.580910 5.278513 0.764697 -0.374473 6.792785 2.305672 5.640480 2.182666 0.000000 0.000000 0.000000 3.350664 3.138442 -23.770709 -2.656282 1.362332 16.864061 3.537295 5.145338 5.858617 0.000000 0.000000 0.000000 6.520701 -1.057559 12.525378 0.097890 -0.010370 -1.096164 -3.545809 3.822096 14.463980 10.992366 -6.779109 -11.060246 0.000000 0.000000 0.000000 -16.921265 -15.501145 5.346003 -53.173383 -8.288344 -3.498770 -5.754427 -28.708357 2.419587 0.000000 0.000000 0.000000 14.573585 3.708323 1.639499 61.922249 10.208411 -1.685895 1.855362 36.033099 2.626312 0.000000 0.000000 0.000000 
0.005673 0.955473 0.040021 -5.026455 0.220760 -10.544549 -3.318338 0.654549 5.942344 0.793534 -0.326137 5.547383 2.212145 5.793528 3.153544 0.000000 0.000000 0.000000 2.897246 3.010053 -23.632252 -2.178485 1.158457 15.675921 3.249114 4.546565 5.813223 0.000000 0.000000 0.000000 6.832450 -1.055145 12.145194 0.125953 -0.016027 -1.294824 -3.515534 3.670489 14.939458 11.373633 -7.058173 -11.194499 0.000000 0.000000 0.000000 -17.043105 -16.048357 5.651865 -53.077469 -8.055954 -3.636411 -5.877344 -29.040669 2.490258 0.000000 0.000000 0.000000 14.491158 3.772523 1.684756 62.069439 10.040348 -1.827314 2.521032 36.410592 2.889637 0.000000 0.000000 0.000000 
